<svg xmlns="http://www.w3.org/2000/svg" viewBox="0 0 7455.0 1446.9" width="372.7" height="72.3" role="img" aria-label="winefeed"><path transform="translate(-4.0,1426.2) scale(1,-1)" d="M1232.4404296875 792.994873046875 1100.329833984375 829.21728515625V871.1064453125H1424.217529296875V829.21728515625L1314.773681640625 793.10595703125L1055.10791015625 -20.66650390625H1009.5517578125L701.8876953125 691.441162109375H741.33154296875L443.77734375 -20.66650390625H398.22119140625L128.444580078125 783.217041015625L4.000244140625 829.21728515625V871.1064453125H417.220703125V829.21728515625L285.554443359375 787.8837890625L487.998291015625 175.10986328125L449.99853515625 170.888671875L743.998046875 892.21728515625H777.664794921875L1087.218017578125 176.776123046875L1048.885009765625 170.888671875ZM1712.111083984375 1183.332763671875Q1658.000244140625 1183.332763671875 1624.1669921875 1218.7769775390625Q1590.333740234375 1254.22119140625 1590.333740234375 1304.554443359375Q1590.333740234375 1354.8876953125 1624.1669921875 1389.83203125Q1658.000244140625 1424.7763671875 1712.111083984375 1424.7763671875Q1766.221923828125 1424.7763671875 1799.8330078125 1389.83203125Q1833.444091796875 1354.8876953125 1833.444091796875 1304.554443359375Q1833.444091796875 1254.22119140625 1799.8330078125 1218.7769775390625Q1766.221923828125 1183.332763671875 1712.111083984375 1183.332763671875ZM1803.2216796875 892.328369140625 1797.88818359375 726.66259765625V81.8896484375L1951.55517578125 35.88916015625V0.0H1496.666748046875V35.88916015625L1647.6669921875 81.8896484375V704.88427734375Q1636.6669921875 716.328857421875 1613.3336181640625 730.7733154296875Q1590.000244140625 745.2177734375 1560.611328125 759.662109375Q1531.222412109375 774.1064453125 1500.222412109375 784.21728515625V813.773193359375L1786.77685546875 892.328369140625ZM2331.777099609375 707.995361328125V81.8896484375L2485.444091796875 35.88916015625V0.0H2030.5556640625V35.88916015625L2181.555908203125 81.8896484375V694.21728515625Q2165.555908203125 710.439697265625 2133.8336181640625 726.7174072265625Q2102.111328125 742.9951171875 2034.111328125 767.327880859375V791.55029296875L2285.998046875 892.328369140625H2305.109619140625ZM2612.664794921875 35.88916015625 2766.44287109375 81.8896484375V573.77392578125Q2766.44287109375 629.218017578125 2743.3873291015625 669.3289794921875Q2720.331787109375 709.43994140625 2674.99853515625 731.051025390625Q2629.665283203125 752.662109375 2563.443359375 752.662109375Q2484.443359375 752.662109375 2416.4990234375 724.05078125Q2348.5546875 695.439453125 2320.221923828125 656.43896484375L2284.110107421875 687.217041015625Q2339.88720703125 744.328125 2388.498046875 783.5504150390625Q2437.10888671875 822.772705078125 2482.5533447265625 846.328369140625Q2527.997802734375 869.884033203125 2575.109130859375 880.4952392578125Q2622.220458984375 891.1064453125 2674.331787109375 891.1064453125Q2798.219970703125 891.1064453125 2857.4420166015625 813.495361328125Q2916.6640625 735.88427734375 2916.6640625 567.662109375V81.8896484375L3069.442138671875 35.88916015625V0.0H2612.664794921875ZM3569.88671875 891.1064453125Q3667.775390625 891.1064453125 3739.552978515625 848.0509033203125Q3811.33056640625 804.995361328125 3854.2193603515625 722.273193359375Q3897.108154296875 639.551025390625 3906.9970703125 519.99560546875H3289.44287109375L3291.220703125 585.995849609375L3809.44189453125 607.329833984375L3740.3310546875 565.552001953125Q3732.997802734375 641.551025390625 3711.053466796875 697.6617431640625Q3689.109130859375 753.7724609375 3650.7203369140625 784.605712890625Q3612.33154296875 815.43896484375 3553.220458984375 815.43896484375Q3481.99853515625 815.43896484375 3428.443115234375 775.9947509765625Q3374.8876953125 736.550537109375 3345.2210693359375 660.8287353515625Q3315.554443359375 585.10693359375 3315.554443359375 475.88525390625Q3315.554443359375 358.66455078125 3359.054443359375 275.0540771484375Q3402.554443359375 191.443603515625 3481.10986328125 146.999267578125Q3559.665283203125 102.554931640625 3665.33154296875 102.554931640625Q3705.219970703125 102.554931640625 3743.5528564453125 113.1103515625Q3781.8857421875 123.665771484375 3819.0521240234375 144.776611328125Q3856.218505859375 165.887451171875 3890.107421875 196.664794921875L3914.107666015625 171.442138671875Q3862.774658203125 105.33203125 3809.6082763671875 62.83251953125Q3756.44189453125 20.3330078125 3697.2755126953125 0.16650390625Q3638.109130859375 -20.0 3569.553955078125 -20.0Q3451.998779296875 -20.0 3359.943603515625 36.72216796875Q3267.888427734375 93.4443359375 3214.9442138671875 193.2772216796875Q3162.0 293.110107421875 3162.0 422.88671875Q3162.0 551.441650390625 3210.9442138671875 657.7744140625Q3259.888427734375 764.107177734375 3351.387939453125 827.6068115234375Q3442.887451171875 891.1064453125 3569.88671875 891.1064453125ZM4226.555419921875 777.3291015625 4187.333251953125 754.43994140625 4016.111328125 779.9951171875V811.106201171875L4201.111083984375 871.661865234375L4248.333251953125 871.1064453125H4613.775634765625L4595.997802734375 777.3291015625ZM4336.443603515625 81.8896484375 4506.554931640625 35.88916015625V0.0H4034.5556640625V35.88916015625L4185.555908203125 81.8896484375V902.99658203125Q4185.555908203125 1041.664306640625 4229.667236328125 1140.998046875Q4273.778564453125 1240.331787109375 4348.167724609375 1303.2762451171875Q4422.556884765625 1366.220703125 4514.112548828125 1396.2205810546875Q4605.668212890625 1426.220458984375 4699.66796875 1426.220458984375Q4750.33447265625 1426.220458984375 4786.0009765625 1418.0538330078125Q4821.66748046875 1409.88720703125 4844.333984375 1395.9984130859375Q4867.00048828125 1382.109619140625 4877.3892822265625 1364.05419921875Q4887.778076171875 1345.998779296875 4887.778076171875 1325.332275390625Q4887.778076171875 1285.776611328125 4860.722412109375 1259.943359375Q4833.666748046875 1234.110107421875 4794.77783203125 1234.110107421875Q4763.44384765625 1234.110107421875 4740.110595703125 1248.998779296875Q4716.77734375 1263.887451171875 4694.4444580078125 1283.1649169921875Q4672.111572265625 1302.4423828125 4644.0565185546875 1317.3310546875Q4616.00146484375 1332.2197265625 4575.11279296875 1332.2197265625Q4513.112548828125 1332.2197265625 4458.6119384765625 1302.3306884765625Q4404.111328125 1272.441650390625 4370.2774658203125 1202.8299560546875Q4336.443603515625 1133.21826171875 4336.443603515625 1014.439208984375ZM5115.88671875 891.1064453125Q5213.775390625 891.1064453125 5285.552978515625 848.0509033203125Q5357.33056640625 804.995361328125 5400.2193603515625 722.273193359375Q5443.108154296875 639.551025390625 5452.9970703125 519.99560546875H4835.44287109375L4837.220703125 585.995849609375L5355.44189453125 607.329833984375L5286.3310546875 565.552001953125Q5278.997802734375 641.551025390625 5257.053466796875 697.6617431640625Q5235.109130859375 753.7724609375 5196.7203369140625 784.605712890625Q5158.33154296875 815.43896484375 5099.220458984375 815.43896484375Q5027.99853515625 815.43896484375 4974.443115234375 775.9947509765625Q4920.8876953125 736.550537109375 4891.2210693359375 660.8287353515625Q4861.554443359375 585.10693359375 4861.554443359375 475.88525390625Q4861.554443359375 358.66455078125 4905.054443359375 275.0540771484375Q4948.554443359375 191.443603515625 5027.10986328125 146.999267578125Q5105.665283203125 102.554931640625 5211.33154296875 102.554931640625Q5251.219970703125 102.554931640625 5289.5528564453125 113.1103515625Q5327.8857421875 123.665771484375 5365.0521240234375 144.776611328125Q5402.218505859375 165.887451171875 5436.107421875 196.664794921875L5460.107666015625 171.442138671875Q5408.774658203125 105.33203125 5355.6082763671875 62.83251953125Q5302.44189453125 20.3330078125 5243.2755126953125 0.16650390625Q5184.109130859375 -20.0 5115.553955078125 -20.0Q4997.998779296875 -20.0 4905.943603515625 36.72216796875Q4813.888427734375 93.4443359375 4760.9442138671875 193.2772216796875Q4708.0 293.110107421875 4708.0 422.88671875Q4708.0 551.441650390625 4756.9442138671875 657.7744140625Q4805.888427734375 764.107177734375 4897.387939453125 827.6068115234375Q4988.887451171875 891.1064453125 5115.88671875 891.1064453125ZM6006.88671875 891.1064453125Q6104.775390625 891.1064453125 6176.552978515625 848.0509033203125Q6248.33056640625 804.995361328125 6291.2193603515625 722.273193359375Q6334.108154296875 639.551025390625 6343.9970703125 519.99560546875H5726.44287109375L5728.220703125 585.995849609375L6246.44189453125 607.329833984375L6177.3310546875 565.552001953125Q6169.997802734375 641.551025390625 6148.053466796875 697.6617431640625Q6126.109130859375 753.7724609375 6087.7203369140625 784.605712890625Q6049.33154296875 815.43896484375 5990.220458984375 815.43896484375Q5918.99853515625 815.43896484375 5865.443115234375 775.9947509765625Q5811.8876953125 736.550537109375 5782.2210693359375 660.8287353515625Q5752.554443359375 585.10693359375 5752.554443359375 475.88525390625Q5752.554443359375 358.66455078125 5796.054443359375 275.0540771484375Q5839.554443359375 191.443603515625 5918.10986328125 146.999267578125Q5996.665283203125 102.554931640625 6102.33154296875 102.554931640625Q6142.219970703125 102.554931640625 6180.5528564453125 113.1103515625Q6218.8857421875 123.665771484375 6256.0521240234375 144.776611328125Q6293.218505859375 165.887451171875 6327.107421875 196.664794921875L6351.107666015625 171.442138671875Q6299.774658203125 105.33203125 6246.6082763671875 62.83251953125Q6193.44189453125 20.3330078125 6134.2755126953125 0.16650390625Q6075.109130859375 -20.0 6006.553955078125 -20.0Q5888.998779296875 -20.0 5796.943603515625 36.72216796875Q5704.888427734375 93.4443359375 5651.9442138671875 193.2772216796875Q5599.0 293.110107421875 5599.0 422.88671875Q5599.0 551.441650390625 5647.9442138671875 657.7744140625Q5696.888427734375 764.107177734375 5788.387939453125 827.6068115234375Q5879.887451171875 891.1064453125 6006.88671875 891.1064453125ZM7178.22021484375 615.439697265625Q7178.22021484375 700.10595703125 7117.776123046875 756.0501708984375Q7057.33203125 811.994384765625 6944.220703125 811.994384765625Q6854.220947265625 811.994384765625 6790.9989013671875 767.0501708984375Q6727.77685546875 722.10595703125 6695.33251953125 639.3287353515625Q6662.88818359375 556.551513671875 6662.88818359375 442.44140625Q6662.88818359375 328.775634765625 6698.3326416015625 250.276123046875Q6733.777099609375 171.776611328125 6797.5546875 131.4990234375Q6861.332275390625 91.221435546875 6946.88720703125 91.221435546875Q7024.77587890625 91.221435546875 7095.498046875 116.2213134765625Q7166.22021484375 141.22119140625 7233.22021484375 195.331787109375L7234.886474609375 129.9970703125Q7163.88623046875 83.88671875 7113.44189453125 54.1650390625Q7062.99755859375 24.443359375 7023.88671875 8.4437255859375Q6984.77587890625 -7.555908203125 6950.9984130859375 -13.7779541015625Q6917.220947265625 -20.0 6880.66552734375 -20.0Q6754.9990234375 -20.0 6667.88818359375 32.0552978515625Q6580.77734375 84.110595703125 6535.8331298828125 177.0545654296875Q6490.888916015625 269.99853515625 6490.888916015625 390.88671875Q6490.888916015625 508.441650390625 6528.6666259765625 600.8856201171875Q6566.4443359375 693.32958984375 6632.7774658203125 758.1070556640625Q6699.110595703125 822.884521484375 6785.3323974609375 856.9954833984375Q6871.55419921875 891.1064453125 6968.4423828125 891.1064453125Q7017.664306640625 891.1064453125 7065.219482421875 883.0509033203125Q7112.774658203125 874.995361328125 7162.7188720703125 858.3287353515625Q7212.6630859375 841.662109375 7267.7744140625 813.662109375L7178.22021484375 759.883544921875V1253.664794921875Q7166.22021484375 1267.553955078125 7146.220458984375 1280.553955078125Q7126.220703125 1293.553955078125 7100.7764892578125 1306.3316650390625Q7075.332275390625 1319.109375 7046.332275390625 1331.220458984375V1349.220458984375L7320.774169921875 1426.220458984375H7337.996826171875L7328.44140625 1264.998046875V135.667724609375Q7337.44140625 126.334228515625 7352.996826171875 117.0008544921875Q7368.55224609375 107.66748046875 7387.21875 98.6119384765625Q7405.88525390625 89.556396484375 7424.440673828125 83.1676025390625Q7442.99609375 76.77880859375 7458.99609375 74.33447265625V45.22314453125L7208.998779296875 -17.11083984375H7190.6650390625L7178.22021484375 133.55615234375Z" fill="#16181D"/></svg>